<?xml version="1.0" standalone="no"?>
<!DOCTYPE svg PUBLIC "-//W3C//DTD SVG 20010904//EN"
 "http://www.w3.org/TR/2001/REC-SVG-20010904/DTD/svg10.dtd">
<svg version="1.0" xmlns="http://www.w3.org/2000/svg"
 width="700.000000pt" height="700.000000pt" viewBox="0 0 700.000000 700.000000"
 preserveAspectRatio="xMidYMid meet">
<metadata>
Created by potrace 1.14, written by Peter Selinger 2001-2017
</metadata>
<g transform="translate(0.000000,700.000000) scale(0.100000,-0.100000)"
fill="#000000" stroke="none">
<path d="M2106 6349 c-43 -5 -99 -15 -125 -23 -25 -8 -84 -21 -131 -29 -47 -8
-106 -24 -131 -35 -24 -11 -58 -24 -74 -27 -30 -7 -156 -63 -205 -91 -14 -7
-47 -25 -75 -39 -136 -69 -303 -209 -436 -365 -132 -154 -143 -168 -167 -217
-12 -23 -26 -44 -31 -47 -5 -4 -15 -23 -22 -44 -7 -20 -22 -53 -35 -72 -12
-19 -28 -55 -34 -80 -6 -25 -19 -56 -28 -70 -8 -13 -26 -65 -38 -115 -13 -49
-29 -113 -38 -142 -48 -168 -45 -686 5 -836 11 -32 26 -90 35 -130 8 -39 22
-82 30 -95 9 -13 24 -48 34 -78 11 -30 28 -67 38 -82 11 -15 25 -44 31 -64 7
-20 19 -42 27 -49 9 -7 25 -32 36 -56 11 -24 24 -43 29 -43 5 0 16 -15 25 -32
26 -51 60 -91 190 -221 116 -117 158 -153 233 -200 19 -12 53 -34 75 -50 23
-15 69 -40 103 -57 34 -16 64 -34 68 -40 3 -5 27 -16 53 -24 27 -7 70 -25 98
-39 27 -14 77 -31 111 -37 34 -6 83 -20 109 -31 35 -16 98 -25 262 -40 l217
-20 232 20 c139 13 249 27 275 37 24 9 85 24 137 35 52 10 104 25 116 33 12 8
53 24 92 35 39 12 76 28 83 36 18 21 50 19 77 -7 13 -12 23 -16 23 -10 0 6 16
20 35 30 88 45 327 312 279 312 -8 0 -20 10 -28 23 -11 18 -13 82 -7 378 l6
355 42 51 c31 36 53 53 76 57 52 10 68 26 59 59 l-8 29 -334 -1 -335 0 -19
-25 c-24 -32 -16 -42 49 -61 49 -14 59 -22 92 -71 21 -32 40 -74 44 -102 4
-26 8 -195 8 -375 1 -262 -2 -333 -13 -355 -13 -24 -92 -104 -156 -157 -30
-24 -102 -68 -150 -91 -19 -9 -56 -27 -81 -40 -26 -13 -77 -30 -115 -38 -38
-8 -87 -22 -108 -31 -57 -24 -274 -38 -471 -31 -142 6 -181 11 -240 31 -38 13
-92 29 -120 35 -27 5 -72 21 -100 35 -27 14 -66 32 -85 40 -32 14 -65 34 -171
102 -75 48 -188 151 -261 238 -32 39 -70 84 -84 100 -48 57 -71 90 -98 140
-15 28 -33 61 -41 75 -33 61 -75 159 -86 200 -6 25 -19 61 -29 80 -9 19 -25
78 -34 130 -10 52 -25 120 -34 150 -25 82 -25 649 0 730 9 30 26 104 37 164
11 59 25 113 30 120 5 6 17 38 26 71 10 33 28 80 41 105 13 25 33 65 44 90 68
148 143 250 292 398 125 124 158 151 215 180 23 12 44 26 47 31 8 13 188 101
205 101 8 0 37 11 65 24 28 13 74 27 101 31 28 3 97 13 153 22 172 25 533 -2
621 -46 20 -11 56 -25 81 -32 167 -50 421 -278 512 -459 13 -25 33 -61 44 -80
12 -19 25 -50 29 -69 10 -47 64 -173 82 -191 13 -13 16 -13 29 4 11 16 14 72
14 302 l0 282 -40 41 c-23 23 -47 41 -54 41 -8 0 -20 7 -27 17 -8 9 -38 27
-68 40 -30 13 -66 33 -79 44 -14 10 -32 19 -42 19 -9 0 -39 12 -66 26 -27 14
-78 34 -114 44 -36 11 -90 28 -120 39 -30 11 -90 24 -134 30 -43 6 -101 18
-130 26 -111 31 -371 43 -550 24z"/>
<path d="M6190 5739 c0 -5 5 -7 10 -4 6 3 10 8 10 11 0 2 -4 4 -10 4 -5 0 -10
-5 -10 -11z"/>
<path d="M6130 5679 c0 -5 5 -7 10 -4 6 3 10 8 10 11 0 2 -4 4 -10 4 -5 0 -10
-5 -10 -11z"/>
<path d="M6065 5620 c-3 -5 1 -10 10 -10 9 0 13 5 10 10 -3 6 -8 10 -10 10 -2
0 -7 -4 -10 -10z"/>
<path d="M6000 5549 c0 -5 5 -7 10 -4 6 3 10 8 10 11 0 2 -4 4 -10 4 -5 0 -10
-5 -10 -11z"/>
<path d="M5935 5491 c-6 -11 9 -23 19 -14 9 9 7 23 -3 23 -6 0 -12 -4 -16 -9z"/>
<path d="M5870 5419 c0 -5 5 -7 10 -4 6 3 10 8 10 11 0 2 -4 4 -10 4 -5 0 -10
-5 -10 -11z"/>
<path d="M5810 5355 c0 -8 2 -15 4 -15 2 0 6 7 10 15 3 8 1 15 -4 15 -6 0 -10
-7 -10 -15z"/>
<path d="M5740 5289 c0 -5 5 -7 10 -4 6 3 10 8 10 11 0 2 -4 4 -10 4 -5 0 -10
-5 -10 -11z"/>
<path d="M5680 5229 c0 -5 5 -7 10 -4 6 3 10 8 10 11 0 2 -4 4 -10 4 -5 0 -10
-5 -10 -11z"/>
<path d="M5616 5171 c-4 -5 -2 -12 3 -15 5 -4 12 -2 15 3 4 5 2 12 -3 15 -5 4
-12 2 -15 -3z"/>
<path d="M5550 5099 c0 -5 5 -7 10 -4 6 3 10 8 10 11 0 2 -4 4 -10 4 -5 0 -10
-5 -10 -11z"/>
<path d="M5485 5041 c-6 -11 9 -23 19 -14 9 9 7 23 -3 23 -6 0 -12 -4 -16 -9z"/>
<path d="M5420 4969 c0 -5 5 -7 10 -4 6 3 10 8 10 11 0 2 -4 4 -10 4 -5 0 -10
-5 -10 -11z"/>
<path d="M5360 4909 c0 -5 5 -7 10 -4 6 3 10 8 10 11 0 2 -4 4 -10 4 -5 0 -10
-5 -10 -11z"/>
<path d="M5290 4839 c0 -5 5 -7 10 -4 6 3 10 8 10 11 0 2 -4 4 -10 4 -5 0 -10
-5 -10 -11z"/>
<path d="M5230 4779 c0 -5 5 -7 10 -4 6 3 10 8 10 11 0 2 -4 4 -10 4 -5 0 -10
-5 -10 -11z"/>
<path d="M5166 4721 c-4 -5 -2 -12 3 -15 5 -4 12 -2 15 3 4 5 2 12 -3 15 -5 4
-12 2 -15 -3z"/>
<path d="M5100 4649 c0 -5 5 -7 10 -4 6 3 10 8 10 11 0 2 -4 4 -10 4 -5 0 -10
-5 -10 -11z"/>
<path d="M5040 4589 c0 -5 5 -7 10 -4 6 3 10 8 10 11 0 2 -4 4 -10 4 -5 0 -10
-5 -10 -11z"/>
<path d="M4970 4519 c0 -5 5 -7 10 -4 6 3 10 8 10 11 0 2 -4 4 -10 4 -5 0 -10
-5 -10 -11z"/>
<path d="M4910 4459 c0 -5 5 -7 10 -4 6 3 10 8 10 11 0 2 -4 4 -10 4 -5 0 -10
-5 -10 -11z"/>
<path d="M4845 4399 c-10 -15 3 -25 16 -12 7 7 7 13 1 17 -6 3 -14 1 -17 -5z"/>
<path d="M4780 4329 c0 -5 5 -7 10 -4 6 3 10 8 10 11 0 2 -4 4 -10 4 -5 0 -10
-5 -10 -11z"/>
<path d="M4715 4271 c-3 -5 -1 -12 5 -16 5 -3 10 1 10 9 0 18 -6 21 -15 7z"/>
<path d="M4650 4200 c0 -5 4 -10 9 -10 6 0 13 5 16 10 3 6 -1 10 -9 10 -9 0
-16 -4 -16 -10z"/>
<path d="M4590 4140 c0 -5 5 -10 10 -10 6 0 10 5 10 10 0 6 -4 10 -10 10 -5 0
-10 -4 -10 -10z"/>
<path d="M4893 4095 c-35 -7 -68 -17 -74 -21 -6 -3 -49 -15 -96 -25 -46 -10
-95 -27 -108 -37 -20 -16 -32 -18 -85 -10 l-62 8 -57 -49 c-94 -83 -268 -265
-276 -289 -4 -13 -18 -28 -31 -34 l-24 -11 21 -23 c19 -21 20 -27 10 -86 -6
-34 -20 -96 -31 -137 -31 -114 -27 -228 11 -365 19 -68 43 -126 60 -150 16
-22 29 -44 29 -49 0 -22 171 -207 235 -254 108 -80 210 -148 265 -175 25 -13
59 -33 75 -44 17 -12 41 -25 55 -29 14 -4 46 -20 71 -36 25 -16 51 -29 57 -29
7 0 41 -16 78 -35 36 -19 71 -35 78 -35 7 0 29 -11 49 -24 19 -13 46 -27 58
-31 40 -12 334 -152 369 -175 14 -10 36 -21 50 -25 14 -4 39 -18 57 -31 17
-13 44 -29 58 -34 15 -6 39 -20 54 -31 14 -11 56 -42 93 -68 106 -76 191 -172
240 -270 l43 -86 0 -145 c0 -143 0 -146 -32 -211 -18 -36 -33 -70 -33 -76 0
-24 -133 -175 -200 -228 -48 -37 -156 -88 -235 -111 -44 -12 -105 -30 -135
-39 -46 -13 -96 -15 -310 -12 -229 3 -261 6 -313 25 -32 12 -85 26 -117 32
-79 14 -328 128 -368 167 -8 7 -23 18 -35 25 -40 21 -151 115 -207 174 -83 88
-179 235 -205 313 -9 28 -20 53 -25 56 -5 3 -14 22 -21 43 -6 20 -18 45 -27
55 -14 16 -16 16 -34 1 -17 -16 -18 -39 -18 -319 l0 -303 39 -35 c21 -19 56
-40 77 -47 22 -7 50 -21 64 -30 14 -10 52 -25 84 -34 32 -10 68 -24 80 -31 12
-7 57 -23 102 -34 44 -11 96 -27 115 -35 19 -7 68 -19 109 -26 41 -6 107 -20
145 -30 85 -22 185 -36 365 -50 280 -21 574 -1 727 49 51 17 99 31 106 31 8 0
39 13 70 30 31 16 63 30 71 30 7 0 37 16 65 35 28 19 53 35 57 35 7 0 155 129
166 145 4 5 19 24 33 40 39 46 73 96 90 135 9 19 27 58 40 85 14 28 31 82 39
120 9 39 20 86 26 105 19 64 12 164 -19 271 -16 55 -36 108 -44 117 -8 10 -23
33 -32 52 -27 53 -133 176 -182 210 -11 8 -55 41 -96 73 -41 31 -79 57 -85 57
-5 0 -15 7 -23 16 -7 9 -39 30 -72 47 -32 18 -84 46 -115 64 -31 17 -113 59
-182 93 -69 34 -132 68 -140 75 -8 7 -26 16 -40 20 -14 3 -52 20 -85 36 -33
15 -76 35 -95 43 -19 8 -46 22 -60 30 -14 8 -45 24 -70 35 -25 11 -52 25 -60
30 -8 6 -35 20 -60 31 -81 38 -146 75 -174 98 -16 12 -34 22 -40 22 -11 0 -76
45 -170 117 -124 96 -219 214 -267 330 -31 72 -33 86 -34 193 0 98 3 121 21
155 11 22 27 58 34 80 7 22 23 53 36 68 13 16 24 32 24 37 0 14 86 94 141 131
83 55 198 107 257 114 29 4 76 13 105 21 87 24 221 28 317 9 47 -9 123 -22
169 -30 46 -8 95 -22 108 -30 13 -9 43 -23 65 -31 117 -41 323 -222 403 -354
95 -158 144 -263 170 -369 8 -30 20 -61 28 -68 12 -13 17 -11 36 13 20 26 21
36 21 286 0 236 -2 262 -19 297 -13 25 -33 43 -60 56 -23 10 -46 24 -53 32 -6
7 -32 24 -57 36 -25 13 -59 31 -76 39 -90 48 -174 86 -205 93 -19 4 -52 16
-74 27 -21 11 -75 26 -120 35 -44 8 -108 24 -141 36 -54 19 -85 21 -305 24
-182 2 -261 -1 -307 -12z"/>
<path d="M4520 4070 c0 -5 5 -10 10 -10 6 0 10 5 10 10 0 6 -4 10 -10 10 -5 0
-10 -4 -10 -10z"/>
<path d="M4010 3554 c0 -8 5 -12 10 -9 6 3 10 10 10 16 0 5 -4 9 -10 9 -5 0
-10 -7 -10 -16z"/>
<path d="M3945 3499 c-10 -15 3 -25 16 -12 7 7 7 13 1 17 -6 3 -14 1 -17 -5z"/>
<path d="M3880 3429 c0 -5 5 -7 10 -4 6 3 10 8 10 11 0 2 -4 4 -10 4 -5 0 -10
-5 -10 -11z"/>
<path d="M3815 3371 c-6 -11 9 -23 19 -14 9 9 7 23 -3 23 -6 0 -12 -4 -16 -9z"/>
<path d="M3750 3299 c0 -5 5 -7 10 -4 6 3 10 8 10 11 0 2 -4 4 -10 4 -5 0 -10
-5 -10 -11z"/>
<path d="M3240 2784 c0 -8 5 -12 10 -9 6 3 10 10 10 16 0 5 -4 9 -10 9 -5 0
-10 -7 -10 -16z"/>
<path d="M3175 2729 c-10 -15 3 -25 16 -12 7 7 7 13 1 17 -6 3 -14 1 -17 -5z"/>
<path d="M3110 2659 c0 -5 5 -7 10 -4 6 3 10 8 10 11 0 2 -4 4 -10 4 -5 0 -10
-5 -10 -11z"/>
<path d="M3046 2601 c-4 -5 -2 -12 3 -15 5 -4 12 -2 15 3 4 5 2 12 -3 15 -5 4
-12 2 -15 -3z"/>
<path d="M2980 2529 c0 -5 5 -7 10 -4 6 3 10 8 10 11 0 2 -4 4 -10 4 -5 0 -10
-5 -10 -11z"/>
<path d="M2920 2470 c0 -5 5 -10 10 -10 6 0 10 5 10 10 0 6 -4 10 -10 10 -5 0
-10 -4 -10 -10z"/>
<path d="M2850 2399 c0 -5 5 -7 10 -4 6 3 10 8 10 11 0 2 -4 4 -10 4 -5 0 -10
-5 -10 -11z"/>
<path d="M2790 2339 c0 -5 5 -7 10 -4 6 3 10 8 10 11 0 2 -4 4 -10 4 -5 0 -10
-5 -10 -11z"/>
<path d="M2725 2279 c-10 -15 3 -25 16 -12 7 7 7 13 1 17 -6 3 -14 1 -17 -5z"/>
<path d="M2660 2209 c0 -5 5 -7 10 -4 6 3 10 8 10 11 0 2 -4 4 -10 4 -5 0 -10
-5 -10 -11z"/>
<path d="M2595 2151 c-6 -11 9 -23 19 -14 9 9 7 23 -3 23 -6 0 -12 -4 -16 -9z"/>
<path d="M2530 2079 c0 -5 5 -7 10 -4 6 3 10 8 10 11 0 2 -4 4 -10 4 -5 0 -10
-5 -10 -11z"/>
<path d="M2470 2019 c0 -5 5 -7 10 -4 6 3 10 8 10 11 0 2 -4 4 -10 4 -5 0 -10
-5 -10 -11z"/>
<path d="M2405 1959 c-10 -15 3 -25 16 -12 7 7 7 13 1 17 -6 3 -14 1 -17 -5z"/>
<path d="M2340 1889 c0 -5 5 -7 10 -4 6 3 10 8 10 11 0 2 -4 4 -10 4 -5 0 -10
-5 -10 -11z"/>
<path d="M2276 1831 c-4 -5 -2 -12 3 -15 5 -4 12 -2 15 3 4 5 2 12 -3 15 -5 4
-12 2 -15 -3z"/>
<path d="M2210 1759 c0 -5 5 -7 10 -4 6 3 10 8 10 11 0 2 -4 4 -10 4 -5 0 -10
-5 -10 -11z"/>
<path d="M2150 1699 c0 -5 5 -7 10 -4 6 3 10 8 10 11 0 2 -4 4 -10 4 -5 0 -10
-5 -10 -11z"/>
<path d="M2080 1629 c0 -5 5 -7 10 -4 6 3 10 8 10 11 0 2 -4 4 -10 4 -5 0 -10
-5 -10 -11z"/>
<path d="M2020 1569 c0 -5 5 -7 10 -4 6 3 10 8 10 11 0 2 -4 4 -10 4 -5 0 -10
-5 -10 -11z"/>
<path d="M1955 1509 c-10 -15 3 -25 16 -12 7 7 7 13 1 17 -6 3 -14 1 -17 -5z"/>
<path d="M1890 1439 c0 -5 5 -7 10 -4 6 3 10 8 10 11 0 2 -4 4 -10 4 -5 0 -10
-5 -10 -11z"/>
<path d="M1826 1381 c-4 -5 -2 -12 3 -15 5 -4 12 -2 15 3 4 5 2 12 -3 15 -5 4
-12 2 -15 -3z"/>
<path d="M1760 1309 c0 -5 5 -7 10 -4 6 3 10 8 10 11 0 2 -4 4 -10 4 -5 0 -10
-5 -10 -11z"/>
<path d="M1700 1249 c0 -5 5 -7 10 -4 6 3 10 8 10 11 0 2 -4 4 -10 4 -5 0 -10
-5 -10 -11z"/>
<path d="M1630 1180 c0 -5 7 -7 15 -4 8 4 15 8 15 10 0 2 -7 4 -15 4 -8 0 -15
-4 -15 -10z"/>
<path d="M1570 1119 c0 -5 5 -7 10 -4 6 3 10 8 10 11 0 2 -4 4 -10 4 -5 0 -10
-5 -10 -11z"/>
<path d="M1505 1059 c-10 -15 3 -25 16 -12 7 7 7 13 1 17 -6 3 -14 1 -17 -5z"/>
<path d="M1440 989 c0 -5 5 -7 10 -4 6 3 10 8 10 11 0 2 -4 4 -10 4 -5 0 -10
-5 -10 -11z"/>
<path d="M1375 931 c-3 -5 -1 -12 5 -16 5 -3 10 1 10 9 0 18 -6 21 -15 7z"/>
<path d="M1310 854 c0 -14 3 -14 15 -4 8 7 15 14 15 16 0 2 -7 4 -15 4 -8 0
-15 -7 -15 -16z"/>
</g>
</svg>
